<?xml version="1.0" encoding="UTF-8" standalone="no"?>
<!DOCTYPE svg PUBLIC "-//W3C//DTD SVG 1.1//EN" "http://www.w3.org/Graphics/SVG/1.1/DTD/svg11.dtd">
<!-- Generated by Microsoft Visio, SVG Export 3phasedd.svg Page-1 -->
<svg xmlns="http://www.w3.org/2000/svg" xmlns:xlink="http://www.w3.org/1999/xlink" xmlns:ev="http://www.w3.org/2001/xml-events"
		xmlns:v="http://schemas.microsoft.com/visio/2003/SVGExtensions/" width="12.5727in" height="5.25261in"
		viewBox="0 0 905.234 378.188" xml:space="preserve" color-interpolation-filters="sRGB" class="st15">
	<v:documentProperties v:langID="1031" v:metric="true" v:viewMarkup="false">
		<v:userDefs>
			<v:ud v:nameU="msvNoAutoConnect" v:val="VT0(1):26"/>
		</v:userDefs>
	</v:documentProperties>

	<style type="text/css">
	<![CDATA[
		.st1 {fill:#ffffff;stroke:#000000;stroke-linecap:round;stroke-linejoin:round;stroke-width:1}
		.st2 {fill:#000000;font-family:Calibri;font-size:0.833336em}
		.st3 {font-size:1em}
		.st4 {marker-end:url(#mrkr13-16);stroke:#000000;stroke-linecap:round;stroke-linejoin:round;stroke-width:0.75}
		.st5 {fill:#000000;fill-opacity:1;stroke:#000000;stroke-opacity:1;stroke-width:0.22935779816514}
		.st6 {fill:#ffffff;stroke:none;stroke-linecap:butt;stroke-width:7.2}
		.st7 {baseline-shift:-33.3489%;font-size:0.666978em}
		.st8 {fill:#000000;font-family:Calibri;font-size:1.16666em}
		.st9 {marker-start:url(#mrkr13-53);stroke:#000000;stroke-linecap:round;stroke-linejoin:round;stroke-width:0.75}
		.st10 {fill:none;stroke:none;stroke-linecap:round;stroke-linejoin:round;stroke-width:0.75}
		.st11 {fill:#000000;font-family:Calibri;font-size:1.00001em}
		.st12 {baseline-shift:-33.349%;font-size:0.666979em}
		.st13 {fill:#000000;font-family:Calibri;font-size:1.99999em}
		.st14 {stroke:#000000;stroke-linecap:round;stroke-linejoin:round;stroke-width:0.75}
		.st15 {fill:none;fill-rule:evenodd;font-size:12px;overflow:visible;stroke-linecap:square;stroke-miterlimit:3}
	]]>
	</style>

	<defs id="Markers">
		<g id="lend13">
			<path d="M 3 1 L 0 0 L 3 -1 L 3 1 " style="stroke:none"/>
		</g>
		<marker id="mrkr13-16" class="st5" v:arrowType="13" v:arrowSize="2" v:setback="13.08" refX="-13.08" orient="auto"
				markerUnits="strokeWidth" overflow="visible">
			<use xlink:href="#lend13" transform="scale(-4.36,-4.36) "/>
		</marker>
		<marker id="mrkr13-53" class="st5" v:arrowType="13" v:arrowSize="2" v:setback="12.6" refX="12.6" orient="auto"
				markerUnits="strokeWidth" overflow="visible">
			<use xlink:href="#lend13" transform="scale(4.36) "/>
		</marker>
	</defs>
	<g v:mID="0" v:index="1" v:groupContext="foregroundPage">
		<title>Page-1</title>
		<v:pageProperties v:drawingScale="0.0393701" v:pageScale="0.0393701" v:drawingUnits="24" v:shadowOffsetX="8.50394"
				v:shadowOffsetY="-8.50394"/>
		<v:layer v:name="Connector" v:index="0"/>
		<g id="shape2-1" v:mID="2" v:groupContext="shape" transform="translate(263.572,-210.869)">
			<title>Square</title>
			<desc>Decoupling+</desc>
			<v:userDefs>
				<v:ud v:nameU="visVersion" v:val="VT0(15):26"/>
			</v:userDefs>
			<v:textBlock v:margins="rect(4,4,4,4)" v:tabSpace="42.5197"/>
			<v:textRect cx="39.7536" cy="338.435" width="79.51" height="79.5072"/>
			<rect x="0" y="298.681" width="79.5072" height="79.5072" class="st1"/>
			<text x="14.42" y="341.43" class="st2" v:langID="1033"><v:paragraph v:horizAlign="1"/><v:tabList/>Decoupling+</text>		</g>
		<g id="shape10-4" v:mID="10" v:groupContext="shape" transform="translate(423.866,-308.665)">
			<title>Square.10</title>
			<desc>Root Square</desc>
			<v:userDefs>
				<v:ud v:nameU="visVersion" v:val="VT0(15):26"/>
			</v:userDefs>
			<v:textBlock v:margins="rect(4,4,4,4)" v:tabSpace="42.5197"/>
			<v:textRect cx="25.5118" cy="352.676" width="51.03" height="51.0236"/>
			<rect x="0" y="327.165" width="51.0236" height="51.0236" class="st1"/>
			<text x="15.85" y="349.68" class="st2" v:langID="1033"><v:paragraph v:horizAlign="1"/><v:tabList/>Root <tspan x="11.33"
						dy="1.2em" class="st3">Square</tspan></text>		</g>
		<g id="shape11-8" v:mID="11" v:groupContext="shape" transform="translate(470.638,-212.287)">
			<title>Square.11</title>
			<desc>Normalize</desc>
			<v:userDefs>
				<v:ud v:nameU="visVersion" v:val="VT0(15):26"/>
			</v:userDefs>
			<v:textBlock v:margins="rect(4,4,4,4)" v:tabSpace="42.5197"/>
			<v:textRect cx="25.5118" cy="352.676" width="51.03" height="51.0236"/>
			<rect x="0" y="327.165" width="51.0236" height="51.0236" class="st1"/>
			<text x="4.76" y="355.68" class="st2" v:langID="1033"><v:paragraph v:horizAlign="1"/><v:tabList/>Normalize</text>		</g>
		<g id="shape16-11" v:mID="16" v:groupContext="shape" v:layerMember="0" transform="translate(343.079,-260.476)">
			<title>Dynamic connector</title>
			<desc>Vd’</desc>
			<v:textBlock v:margins="rect(4,4,4,4)" v:tabSpace="42.5197"/>
			<v:textRect cx="19.9797" cy="370.818" width="50" height="20.0036"/>
			<path d="M0 378.19 L39.85 378.19 L39.85 295.98 L70.98 295.98" class="st4"/>
			<rect v:rectContext="textBkgnd" x="14.5584" y="364.818" width="10.8424" height="12.5675" class="st6"/>
			<text x="14.56" y="373.82" class="st2" v:langID="1033"><v:paragraph v:horizAlign="1"/><v:tabList/>V<tspan dy="-0.289em"
						class="st7" v:baseFontSize="10">d</tspan><tspan class="st7" v:baseFontSize="10">’</tspan></text>		</g>
		<g id="shape17-21" v:mID="17" v:groupContext="shape" v:layerMember="0" transform="translate(343.079,-237.799)">
			<title>Dynamic connector.17</title>
			<desc>Vq’</desc>
			<v:textBlock v:margins="rect(4,4,4,4)" v:tabSpace="42.5197"/>
			<v:textRect cx="20.8894" cy="371.64" width="50" height="20.0036"/>
			<path d="M0 378.19 L37.5 378.19 A2.3622 2.3622 0 0 1 42.23 378.19 L53.86 378.19 L53.86 290.31 L70.98 290.31"
					class="st4"/>
			<rect v:rectContext="textBkgnd" x="15.4682" y="365.641" width="10.8424" height="12.5675" class="st6"/>
			<text x="15.47" y="374.64" class="st2" v:langID="1033"><v:paragraph v:horizAlign="1"/><v:tabList/>V<tspan dy="-0.289em"
						class="st7" v:baseFontSize="10">q</tspan><tspan class="st7" v:baseFontSize="10">’</tspan></text>		</g>
		<g id="shape18-30" v:mID="18" v:groupContext="shape" v:layerMember="0" transform="translate(343.079,-244.885)">
			<title>Dynamic connector.18</title>
			<path d="M0 385.27 L37.5 385.27 A2.3622 2.3622 0 0 1 42.23 385.27 L117.75 385.27" class="st4"/>
		</g>
		<g id="shape21-35" v:mID="21" v:groupContext="shape" transform="translate(581.189,-212.287)">
			<title>Square.21</title>
			<desc>PI</desc>
			<v:userDefs>
				<v:ud v:nameU="visVersion" v:val="VT0(15):26"/>
			</v:userDefs>
			<v:textBlock v:margins="rect(4,4,4,4)" v:tabSpace="42.5197"/>
			<v:textRect cx="25.5118" cy="352.676" width="51.03" height="51.0236"/>
			<rect x="0" y="327.165" width="51.0236" height="51.0236" class="st1"/>
			<text x="20.13" y="356.88" class="st8" v:langID="1033"><v:paragraph v:horizAlign="1"/><v:tabList/>PI</text>		</g>
		<g id="shape22-38" v:mID="22" v:groupContext="shape" v:layerMember="0" transform="translate(474.89,-334.176)">
			<title>Dynamic connector.22</title>
			<path d="M0 378.19 L21.26 378.19 L21.26 439.24" class="st4"/>
		</g>
		<g id="shape25-43" v:mID="25" v:groupContext="shape" v:layerMember="0" transform="translate(521.662,-230.712)">
			<title>Dynamic connector.25</title>
			<path d="M0 371.1 L49.72 371.1" class="st4"/>
		</g>
		<g id="shape26-48" v:mID="26" v:groupContext="shape" v:layerMember="0" transform="translate(613.788,-212.287)">
			<title>Dynamic connector.26</title>
			<path d="M-7.09 387.64 L-7.09 388 L-7.09 411.59" class="st9"/>
		</g>
		<g id="shape27-54" v:mID="27" v:groupContext="shape" transform="translate(565.599,-160.458)">
			<title>Sheet.27</title>
			<desc>Set Point = 0</desc>
			<v:textBlock v:margins="rect(4,4,4,4)" v:tabSpace="42.5197"/>
			<v:textRect cx="41.1024" cy="372.519" width="82.21" height="11.3386"/>
			<rect x="0" y="366.85" width="82.2047" height="11.3386" class="st10"/>
			<text x="15.56" y="375.52" class="st2" v:langID="1033"><v:paragraph v:horizAlign="1"/><v:tabList/>Set Point = 0</text>		</g>
		<g id="shape29-57" v:mID="29" v:groupContext="shape" v:layerMember="0" transform="translate(684.654,-249.137)">
			<title>Dynamic connector.29</title>
			<path d="M-7.09 368.74 L-7.09 368.38 L-7.09 345.54" class="st9"/>
		</g>
		<g id="shape30-62" v:mID="30" v:groupContext="shape" transform="translate(628.386,-286.6)">
			<title>Sheet.30</title>
			<desc>ωn=2πfgrid_nom</desc>
			<v:textBlock v:margins="rect(4,4,4,4)" v:tabSpace="42.5197"/>
			<v:textRect cx="52.4409" cy="370.393" width="104.89" height="15.5906"/>
			<rect x="0" y="362.598" width="104.882" height="15.5906" class="st10"/>
			<text x="19.28" y="373.99" class="st11" v:langID="1033"><v:paragraph v:horizAlign="1"/><v:tabList/>ω<tspan
						dy="-0.289em" class="st12" v:baseFontSize="12">n</tspan><tspan dy="0.193em" class="st3">=2</tspan>πf<tspan
						dy="-0.289em" class="st12" v:baseFontSize="12">grid_nom</tspan></text>		</g>
		<g id="shape32-68" v:mID="32" v:groupContext="shape" transform="translate(666.229,-226.46)">
			<title>Circle</title>
			<v:userDefs>
				<v:ud v:nameU="visVersion" v:val="VT0(15):26"/>
			</v:userDefs>
			<path d="M0 366.85 A11.3386 11.3386 0 1 1 22.68 366.85 A11.3386 11.3386 0 1 1 0 366.85 Z" class="st1"/>
		</g>
		<g id="shape33-70" v:mID="33" v:groupContext="shape" v:layerMember="0" transform="translate(632.213,-230.712)">
			<title>Dynamic connector.33</title>
			<path d="M0 371.1 L24.21 371.1" class="st4"/>
		</g>
		<g id="shape34-75" v:mID="34" v:groupContext="shape" transform="translate(654.89,-242.663)">
			<title>Sheet.34</title>
			<desc>+</desc>
			<v:textBlock v:margins="rect(4,4,4,4)" v:tabSpace="42.5197"/>
			<v:textRect cx="5.66929" cy="376.771" width="11.34" height="2.83465"/>
			<rect x="0" y="375.354" width="11.3386" height="2.83465" class="st10"/>
			<text x="4" y="380.37" class="st11" v:langID="1033"><v:paragraph v:horizAlign="1"/><v:tabList/>+</text>		</g>
		<g id="shape36-78" v:mID="36" v:groupContext="shape" transform="translate(677.567,-252.584)">
			<title>Sheet.36</title>
			<desc>+</desc>
			<v:textBlock v:margins="rect(4,4,4,4)" v:tabSpace="42.5197"/>
			<v:textRect cx="5.66929" cy="376.771" width="11.34" height="2.83465"/>
			<rect x="0" y="375.354" width="11.3386" height="2.83465" class="st10"/>
			<text x="4" y="380.37" class="st11" v:langID="1033"><v:paragraph v:horizAlign="1"/><v:tabList/>+</text>		</g>
		<g id="shape37-81" v:mID="37" v:groupContext="shape" transform="translate(756.937,-212.287)">
			<title>Square.37</title>
			<desc>∫</desc>
			<v:userDefs>
				<v:ud v:nameU="visVersion" v:val="VT0(15):26"/>
			</v:userDefs>
			<v:textBlock v:margins="rect(4,4,4,4)" v:tabSpace="42.5197"/>
			<v:textRect cx="25.5118" cy="352.676" width="51.03" height="51.0236"/>
			<rect x="0" y="327.165" width="51.0236" height="51.0236" class="st1"/>
			<text x="21.12" y="359.88" class="st13" v:langID="1033"><v:paragraph v:horizAlign="1"/><v:tabList/>∫ </text>		</g>
		<g id="shape38-84" v:mID="38" v:groupContext="shape" transform="translate(708.748,-180.301)">
			<title>Sheet.38</title>
			<desc>Forward Euler [0,2π]</desc>
			<v:textBlock v:margins="rect(4,4,4,4)" v:tabSpace="42.5197"/>
			<v:textRect cx="34.0157" cy="369.684" width="68.04" height="17.0079"/>
			<rect x="0" y="361.18" width="68.0315" height="17.0079" class="st10"/>
			<text x="13.6" y="366.08" class="st11" v:langID="1033"><v:paragraph v:horizAlign="1"/><v:tabList/>Forward <tspan
						x="5.55" dy="1.2em" class="st3">Euler [0,2</tspan>π]</text>		</g>
		<g id="shape41-88" v:mID="41" v:groupContext="shape" v:layerMember="0" transform="translate(688.906,-244.885)">
			<title>Dynamic connector.41</title>
			<path d="M0 385.27 L68.03 385.27" class="st14"/>
		</g>
		<g id="shape44-91" v:mID="44" v:groupContext="shape" v:layerMember="0" transform="translate(807.961,-230.712)">
			<title>Dynamic connector.44</title>
			<path d="M0 371.1 L36.09 371.1" class="st4"/>
		</g>
		<g id="shape46-96" v:mID="46" v:groupContext="shape" transform="translate(856.15,-232.742)">
			<title>Sheet.46</title>
			<desc>θ</desc>
			<v:textBlock v:margins="rect(4,4,4,4)" v:tabSpace="42.5197"/>
			<v:textRect cx="11.3386" cy="372.519" width="22.68" height="11.3386"/>
			<rect x="0" y="366.85" width="22.6772" height="11.3386" class="st10"/>
			<text x="8.15" y="376.12" class="st11" v:langID="1031"><v:paragraph v:horizAlign="1"/><v:tabList/>θ </text>		</g>
		<g id="shape49-99" v:mID="49" v:groupContext="shape" v:layerMember="0" transform="translate(474.89,-327.09)">
			<title>Dynamic connector.49</title>
			<path d="M0 371.1 L369.39 371.1" class="st4"/>
		</g>
		<g id="shape50-104" v:mID="50" v:groupContext="shape" transform="translate(854.733,-329.12)">
			<title>Sheet.50</title>
			<desc>RMS</desc>
			<v:textBlock v:margins="rect(4,4,4,4)" v:tabSpace="42.5197"/>
			<v:textRect cx="16.063" cy="372.519" width="32.13" height="11.3386"/>
			<rect x="0" y="366.85" width="32.126" height="11.3386" class="st10"/>
			<text x="4.92" y="376.12" class="st11" v:langID="1033"><v:paragraph v:horizAlign="1"/><v:tabList/>RMS</text>		</g>
		<g id="shape51-107" v:mID="51" v:groupContext="shape" transform="translate(763.386,-279.514)">
			<title>Square.51</title>
			<desc>LPF</desc>
			<v:userDefs>
				<v:ud v:nameU="visVersion" v:val="VT0(15):26"/>
			</v:userDefs>
			<v:textBlock v:margins="rect(4,4,4,4)" v:tabSpace="42.5197"/>
			<v:textRect cx="19.063" cy="359.125" width="38.13" height="38.126"/>
			<rect x="0" y="340.062" width="38.126" height="38.126" class="st1"/>
			<text x="10.68" y="362.73" class="st11" v:langID="1033"><v:paragraph v:horizAlign="1"/><v:tabList/>LPF</text>		</g>
		<g id="shape53-110" v:mID="53" v:groupContext="shape" v:layerMember="0" transform="translate(763.386,-298.577)">
			<title>Dynamic connector.53</title>
			<path d="M-9.45 378.19 L-9.81 378.19 L-40.46 378.19 L-40.46 438.35" class="st9"/>
		</g>
		<g id="shape57-115" v:mID="57" v:groupContext="shape" v:layerMember="0" transform="translate(801.512,-305.628)">
			<title>Dynamic connector.57</title>
			<path d="M0 385.24 L42.6 385.3" class="st4"/>
		</g>
		<g id="shape58-120" v:mID="58" v:groupContext="shape" transform="translate(853.918,-292.907)">
			<title>Sheet.58</title>
			<desc>ω</desc>
			<v:textBlock v:margins="rect(4,4,4,4)" v:tabSpace="42.5197"/>
			<v:textRect cx="16.063" cy="372.519" width="32.13" height="11.3386"/>
			<rect x="0" y="366.85" width="32.126" height="11.3386" class="st10"/>
			<text x="11.89" y="376.12" class="st11" v:langID="1033"><v:paragraph v:horizAlign="1"/><v:tabList/>ω  </text>		</g>
		<g id="shape209-123" v:mID="209" v:groupContext="shape" transform="translate(263.435,-56.244)">
			<title>Square.209</title>
			<desc>Decoupling-</desc>
			<v:userDefs>
				<v:ud v:nameU="visVersion" v:val="VT0(15):26"/>
			</v:userDefs>
			<v:textBlock v:margins="rect(4,4,4,4)" v:tabSpace="42.5197"/>
			<v:textRect cx="39.7536" cy="338.435" width="79.51" height="79.5072"/>
			<rect x="0" y="298.681" width="79.5072" height="79.5072" class="st1"/>
			<text x="15.38" y="341.43" class="st2" v:langID="1033"><v:paragraph v:horizAlign="1"/><v:tabList/>Decoupling-</text>		</g>
		<g id="shape221-126" v:mID="221" v:groupContext="shape" v:layerMember="0" transform="translate(415.544,-81.893)">
			<title>Dynamic connector.221</title>
			<path d="M0 378.19 L15.27 378.19 L15.27 301.65 L-30.24 301.65 A2.3622 2.3622 -180 0 0 -34.96 301.65 L-58.58 301.65 A2.3622
						 2.3622 -180 0 0 -63.31 301.65 L-177.08 301.65 L-177.08 229.37 L-161.78 229.37" class="st4"/>
		</g>
		<g id="shape222-131" v:mID="222" v:groupContext="shape" v:layerMember="0" transform="translate(415.544,-110.239)">
			<title>Dynamic connector.222</title>
			<path d="M0 378.19 L8.86 378.19 L8.86 337.09 L-30.24 337.09 A2.3622 2.3622 -180 0 0 -34.96 337.09 L-58.58 337.09 A2.3622
						 2.3622 -180 0 0 -63.31 337.09 L-183.15 337.09 L-183.15 237.8 L-161.78 237.8" class="st4"/>
		</g>
		<g id="shape230-136" v:mID="230" v:groupContext="shape" transform="translate(93.4931,-222.208)">
			<title>Square.230</title>
			<v:userDefs>
				<v:ud v:nameU="visVersion" v:val="VT0(15):26"/>
			</v:userDefs>
			<rect x="0" y="327.165" width="51.0236" height="51.0236" class="st1"/>
		</g>
		<g id="shape231-138" v:mID="231" v:groupContext="shape" transform="translate(411.936,372.376) rotate(135)">
			<title>Sheet.231</title>
			<path d="M0 378.19 L72.16 378.19" class="st14"/>
		</g>
		<g id="shape232-141" v:mID="232" v:groupContext="shape" transform="translate(93.4931,-253.545)">
			<title>Sheet.232</title>
			<desc>αβ0</desc>
			<v:textBlock v:margins="rect(4,4,4,4)" v:tabSpace="42.5197"/>
			<v:textRect cx="16.063" cy="371.534" width="32.13" height="13.309"/>
			<rect x="0" y="364.879" width="32.126" height="13.309" class="st10"/>
			<text x="6.43" y="375.13" class="st11" v:langID="1031"><v:paragraph v:horizAlign="1"/><v:tabList/>αβ<tspan class="st3"
						v:langID="1033">0</tspan></text>		</g>
		<g id="shape233-145" v:mID="233" v:groupContext="shape" transform="translate(112.391,-230.608)">
			<title>Sheet.233</title>
			<desc>dq0</desc>
			<v:textBlock v:margins="rect(4,4,4,4)" v:tabSpace="42.5197"/>
			<v:textRect cx="16.063" cy="371.662" width="32.13" height="13.0528"/>
			<rect x="0" y="365.135" width="32.126" height="13.0528" class="st10"/>
			<text x="6.72" y="375.26" class="st11" v:langID="1033"><v:paragraph v:horizAlign="1"/><v:tabList/>dq0</text>		</g>
		<g id="shape234-148" v:mID="234" v:groupContext="shape" transform="translate(93.4931,-71.5511)">
			<title>Square.234</title>
			<v:userDefs>
				<v:ud v:nameU="visVersion" v:val="VT0(15):26"/>
			</v:userDefs>
			<rect x="0" y="327.165" width="51.0236" height="51.0236" class="st1"/>
		</g>
		<g id="shape235-150" v:mID="235" v:groupContext="shape" transform="translate(411.936,524.03) rotate(135)">
			<title>Sheet.235</title>
			<path d="M0 378.19 L72.16 378.19" class="st14"/>
		</g>
		<g id="shape236-153" v:mID="236" v:groupContext="shape" transform="translate(93.4931,-101.891)">
			<title>Sheet.236</title>
			<desc>αβ0</desc>
			<v:textBlock v:margins="rect(4,4,4,4)" v:tabSpace="42.5197"/>
			<v:textRect cx="16.063" cy="371.534" width="32.13" height="13.309"/>
			<rect x="0" y="364.879" width="32.126" height="13.309" class="st10"/>
			<text x="6.43" y="375.13" class="st11" v:langID="1031"><v:paragraph v:horizAlign="1"/><v:tabList/>αβ<tspan class="st3"
						v:langID="1033">0</tspan></text>		</g>
		<g id="shape237-157" v:mID="237" v:groupContext="shape" transform="translate(112.391,-78.9548)">
			<title>Sheet.237</title>
			<desc>dq0</desc>
			<v:textBlock v:margins="rect(4,4,4,4)" v:tabSpace="42.5197"/>
			<v:textRect cx="16.063" cy="371.662" width="32.13" height="13.0528"/>
			<rect x="0" y="365.135" width="32.126" height="13.0528" class="st10"/>
			<text x="6.72" y="375.26" class="st11" v:langID="1033"><v:paragraph v:horizAlign="1"/><v:tabList/>dq0</text>		</g>
		<g id="shape238-160" v:mID="238" v:groupContext="shape" v:layerMember="0" transform="translate(807.961,-237.799)">
			<title>Dynamic connector.238</title>
			<path d="M0 378.19 L10.63 378.19 L10.63 582.28 L-688.96 582.28 L-688.96 554.25" class="st4"/>
		</g>
		<g id="shape242-165" v:mID="242" v:groupContext="shape" transform="translate(18.375,-256.224)">
			<title>Sheet.242</title>
			<desc>Va</desc>
			<v:textBlock v:margins="rect(4,4,4,4)" v:tabSpace="42.5197"/>
			<v:textRect cx="9.92126" cy="372.519" width="19.85" height="11.3386"/>
			<rect x="0" y="366.85" width="19.8425" height="11.3386" class="st10"/>
			<text x="4.6" y="377.92" class="st11" v:langID="1033"><v:paragraph v:horizAlign="1"/><v:tabList/>V<tspan dy="-0.289em"
						class="st12" v:baseFontSize="12">a</tspan> </text>		</g>
		<g id="shape243-169" v:mID="243" v:groupContext="shape" transform="translate(18.375,-230.712)">
			<title>Sheet.243</title>
			<desc>Vb</desc>
			<v:textBlock v:margins="rect(4,4,4,4)" v:tabSpace="42.5197"/>
			<v:textRect cx="9.92126" cy="372.519" width="19.85" height="11.3386"/>
			<rect x="0" y="366.85" width="19.8425" height="11.3386" class="st10"/>
			<text x="4.41" y="377.92" class="st11" v:langID="1033"><v:paragraph v:horizAlign="1"/><v:tabList/>V<tspan dy="-0.289em"
						class="st12" v:baseFontSize="12">b </tspan>  </text>		</g>
		<g id="shape244-173" v:mID="244" v:groupContext="shape" v:layerMember="0" transform="translate(86.4065,-233.547)">
			<title>Dynamic connector.244</title>
			<path d="M7.09 378.19 L-9.75 378.19 A2.3622 2.3622 -180 1 0 -14.48 378.19 L-28.35 378.19 L-28.35 528.85 L-2.72 528.85"
					class="st4"/>
		</g>
		<g id="shape245-178" v:mID="245" v:groupContext="shape" v:layerMember="0" transform="translate(86.4065,-259.058)">
			<title>Dynamic connector.245</title>
			<path d="M7.09 378.19 L-12.12 378.19 L-12.12 528.85 L-2.72 528.85" class="st4"/>
		</g>
		<g id="shape246-183" v:mID="246" v:groupContext="shape" v:layerMember="0" transform="translate(93.4931,-251.972)">
			<title>Dynamic connector.246</title>
			<path d="M-9.45 371.1 L-9.81 371.1 L-56.69 371.1" class="st9"/>
		</g>
		<g id="shape247-188" v:mID="247" v:groupContext="shape" v:layerMember="0" transform="translate(93.4931,-226.46)">
			<title>Dynamic connector.247</title>
			<path d="M-9.45 371.1 L-9.81 371.1 L-16.84 371.1 A2.3622 2.3622 -180 0 0 -21.56 371.1 L-56.69 371.1" class="st9"/>
		</g>
		<g id="shape255-193" v:mID="255" v:groupContext="shape" v:layerMember="0" transform="translate(111.918,-122.575)">
			<title>Dynamic connector.255</title>
			<path d="M7.09 378.19 L7.09 288.37" class="st4"/>
		</g>
		<g id="shape256-198" v:mID="256" v:groupContext="shape" v:layerMember="0" transform="translate(144.517,-97.0629)">
			<title>Dynamic connector.256</title>
			<path d="M0 378.19 L10.63 378.19 L10.63 399.03 L109.11 399.03" class="st4"/>
		</g>
		<g id="shape257-203" v:mID="257" v:groupContext="shape" v:layerMember="0" transform="translate(144.517,-247.72)">
			<title>Dynamic connector.257</title>
			<path d="M0 378.19 L10.63 378.19 L10.63 355.51 L109.25 355.51" class="st4"/>
		</g>
		<g id="shape258-208" v:mID="258" v:groupContext="shape" v:layerMember="0" transform="translate(807.961,-237.799)">
			<title>Dynamic connector.258</title>
			<path d="M0 378.19 L10.63 378.19 L10.63 582.28 L-504.77 582.28 L-504.77 569.55" class="st4"/>
		</g>
		<g id="shape260-213" v:mID="260" v:groupContext="shape" v:layerMember="0" transform="translate(119.005,-273.232)">
			<title>Dynamic connector.260</title>
			<path d="M0 378.19 L0 335.67 L184.32 335.67 L184.32 351.23" class="st4"/>
		</g>
		<g id="shape261-218" v:mID="261" v:groupContext="shape" v:layerMember="0" transform="translate(343.079,-260.476)">
			<title>Dynamic connector.261</title>
			<path d="M0 378.19 L39.87 378.19 L39.87 423.02" class="st4"/>
		</g>
		<g id="shape262-223" v:mID="262" v:groupContext="shape" v:layerMember="0" transform="translate(341.753,-237.799)">
			<title>Dynamic connector.262</title>
			<path d="M1.33 378.19 L12.85 378.19 L12.85 400.34" class="st4"/>
		</g>
		<g id="shape263-228" v:mID="263" v:groupContext="shape" transform="translate(291.85,-19.5308)">
			<title>Sheet.263</title>
			<desc>θ</desc>
			<v:textBlock v:margins="rect(4,4,4,4)" v:tabSpace="42.5197"/>
			<v:textRect cx="11.3386" cy="372.519" width="22.68" height="11.3386"/>
			<rect x="0" y="366.85" width="22.6772" height="11.3386" class="st10"/>
			<text x="8.15" y="376.12" class="st11" v:langID="1031"><v:paragraph v:horizAlign="1"/><v:tabList/>θ </text>		</g>
		<g id="shape264-231" v:mID="264" v:groupContext="shape" transform="translate(291.987,-318.586)">
			<title>Sheet.264</title>
			<desc>θ</desc>
			<v:textBlock v:margins="rect(4,4,4,4)" v:tabSpace="42.5197"/>
			<v:textRect cx="11.3386" cy="372.519" width="22.68" height="11.3386"/>
			<rect x="0" y="366.85" width="22.6772" height="11.3386" class="st10"/>
			<text x="8.15" y="376.12" class="st11" v:langID="1031"><v:paragraph v:horizAlign="1"/><v:tabList/>θ </text>		</g>
		<g id="shape265-234" v:mID="265" v:groupContext="shape" transform="translate(105.54,-176.854)">
			<title>Sheet.265</title>
			<desc>θ</desc>
			<v:textBlock v:margins="rect(4,4,4,4)" v:tabSpace="42.5197"/>
			<v:textRect cx="7.79527" cy="372.519" width="15.6" height="11.3386"/>
			<rect x="0" y="366.85" width="15.5905" height="11.3386" class="st10"/>
			<text x="4.6" y="376.12" class="st11" v:langID="1031"><v:paragraph v:horizAlign="1"/><v:tabList/>θ </text>		</g>
		<g id="shape266-237" v:mID="266" v:groupContext="shape" transform="translate(389.395,-97.1647)">
			<title>Square.266</title>
			<desc>LPF</desc>
			<v:userDefs>
				<v:ud v:nameU="visVersion" v:val="VT0(15):26"/>
			</v:userDefs>
			<v:textBlock v:margins="rect(4,4,4,4)" v:tabSpace="42.5197"/>
			<v:textRect cx="13.0748" cy="365.113" width="26.15" height="26.1496"/>
			<rect x="0" y="352.039" width="26.1496" height="26.1496" class="st1"/>
			<text x="4.7" y="368.71" class="st11" v:langID="1033"><v:paragraph v:horizAlign="1"/><v:tabList/>LPF</text>		</g>
		<g id="shape267-240" v:mID="267" v:groupContext="shape" v:layerMember="0" transform="translate(389.395,-117.326)">
			<title>Dynamic connector.267</title>
			<desc>Vd’-</desc>
			<v:textBlock v:margins="rect(4,4,4,4)" v:tabSpace="42.5197"/>
			<v:textRect cx="-23.7756" cy="378.188" width="50" height="20.0036"/>
			<path d="M-9.45 385.27 L-9.81 385.27 L-46.45 385.27" class="st9"/>
			<rect v:rectContext="textBkgnd" x="-30.2178" y="372.188" width="12.8845" height="12.5675" class="st6"/>
			<text x="-30.22" y="381.19" class="st2" v:langID="1033"><v:paragraph v:horizAlign="1"/><v:tabList/>V<tspan
						dy="-0.289em" class="st7" v:baseFontSize="10">d</tspan><tspan class="st7" v:baseFontSize="10">’</tspan><tspan
						class="st7" v:baseFontSize="10">-</tspan></text>		</g>
		<g id="shape268-250" v:mID="268" v:groupContext="shape" transform="translate(389.395,-68.8182)">
			<title>Square.268</title>
			<desc>LPF</desc>
			<v:userDefs>
				<v:ud v:nameU="visVersion" v:val="VT0(15):26"/>
			</v:userDefs>
			<v:textBlock v:margins="rect(4,4,4,4)" v:tabSpace="42.5197"/>
			<v:textRect cx="13.0748" cy="365.113" width="26.15" height="26.1496"/>
			<rect x="0" y="352.039" width="26.1496" height="26.1496" class="st1"/>
			<text x="4.7" y="368.71" class="st11" v:langID="1033"><v:paragraph v:horizAlign="1"/><v:tabList/>LPF</text>		</g>
		<g id="shape269-253" v:mID="269" v:groupContext="shape" v:layerMember="0" transform="translate(389.395,-74.8064)">
			<title>Dynamic connector.269</title>
			<desc>Vq’-</desc>
			<v:textBlock v:margins="rect(4,4,4,4)" v:tabSpace="42.5197"/>
			<v:textRect cx="-23.7756" cy="364.015" width="50" height="20.0036"/>
			<path d="M-9.45 371.1 L-9.81 371.1 L-46.45 371.1" class="st9"/>
			<rect v:rectContext="textBkgnd" x="-30.2178" y="358.015" width="12.8845" height="12.5675" class="st6"/>
			<text x="-30.22" y="367.02" class="st2" v:langID="1033"><v:paragraph v:horizAlign="1"/><v:tabList/>V<tspan
						dy="-0.289em" class="st7" v:baseFontSize="10">q</tspan><tspan class="st7" v:baseFontSize="10">’</tspan><tspan
						class="st7" v:baseFontSize="10">-</tspan></text>		</g>
		<g id="shape272-263" v:mID="272" v:groupContext="shape" transform="translate(369.871,-179.688)">
			<title>Square.272</title>
			<desc>LPF</desc>
			<v:userDefs>
				<v:ud v:nameU="visVersion" v:val="VT0(15):26"/>
			</v:userDefs>
			<v:textBlock v:margins="rect(4,4,4,4)" v:tabSpace="42.5197"/>
			<v:textRect cx="13.0748" cy="365.113" width="26.15" height="26.1496"/>
			<rect x="0" y="352.039" width="26.1496" height="26.1496" class="st1"/>
			<text x="4.7" y="368.71" class="st11" v:langID="1033"><v:paragraph v:horizAlign="1"/><v:tabList/>LPF</text>		</g>
		<g id="shape273-266" v:mID="273" v:groupContext="shape" v:layerMember="0" transform="translate(382.946,-179.688)">
			<title>Dynamic connector.273</title>
			<path d="M0 378.19 L0 417.87 L-144.18 417.87 L-144.18 441.97 L-129.32 441.97" class="st4"/>
		</g>
		<g id="shape274-271" v:mID="274" v:groupContext="shape" transform="translate(341.525,-179.688)">
			<title>Square.274</title>
			<desc>LPF</desc>
			<v:userDefs>
				<v:ud v:nameU="visVersion" v:val="VT0(15):26"/>
			</v:userDefs>
			<v:textBlock v:margins="rect(4,4,4,4)" v:tabSpace="42.5197"/>
			<v:textRect cx="13.0748" cy="365.113" width="26.15" height="26.1496"/>
			<rect x="0" y="352.039" width="26.1496" height="26.1496" class="st1"/>
			<text x="4.7" y="368.71" class="st11" v:langID="1033"><v:paragraph v:horizAlign="1"/><v:tabList/>LPF</text>		</g>
		<g id="shape275-274" v:mID="275" v:groupContext="shape" v:layerMember="0" transform="translate(354.599,-179.688)">
			<title>Dynamic connector.275</title>
			<path d="M0 378.19 L0 412.2 L-122.33 412.2 L-122.33 461.88 L-100.97 461.88" class="st4"/>
		</g>
	</g>
</svg>
