<?xml version="1.0" encoding="UTF-8" standalone="no"?>
<!DOCTYPE svg PUBLIC "-//W3C//DTD SVG 1.1//EN" "http://www.w3.org/Graphics/SVG/1.1/DTD/svg11.dtd">
<!-- Generated by Microsoft Visio, SVG Export mppt_pno_flowchart.svg Page-1 -->
<svg xmlns="http://www.w3.org/2000/svg" xmlns:xlink="http://www.w3.org/1999/xlink" xmlns:ev="http://www.w3.org/2001/xml-events"
		xmlns:v="http://schemas.microsoft.com/visio/2003/SVGExtensions/" width="8.1805in" height="15.547in"
		viewBox="0 0 588.996 1119.38" xml:space="preserve" color-interpolation-filters="sRGB" class="st7">
	<v:documentProperties v:langID="1031" v:metric="true" v:viewMarkup="false">
		<v:userDefs>
			<v:ud v:nameU="msvNoAutoConnect" v:val="VT0(1):26"/>
		</v:userDefs>
	</v:documentProperties>

	<style type="text/css">
	<![CDATA[
		.st1 {fill:#ffffff;stroke:#000000;stroke-linecap:round;stroke-linejoin:round;stroke-width:1}
		.st2 {fill:#000000;font-family:Calibri;font-size:0.833336em}
		.st3 {marker-end:url(#mrkr13-18);stroke:#000000;stroke-linecap:round;stroke-linejoin:round;stroke-width:1}
		.st4 {fill:#000000;fill-opacity:1;stroke:#000000;stroke-opacity:1;stroke-width:0.28409090909091}
		.st5 {fill:#ffffff;stroke:none;stroke-linecap:butt;stroke-width:7.2}
		.st6 {stroke:#000000;stroke-linecap:round;stroke-linejoin:round;stroke-width:1}
		.st7 {fill:none;fill-rule:evenodd;font-size:12px;overflow:visible;stroke-linecap:square;stroke-miterlimit:3}
	]]>
	</style>

	<defs id="Markers">
		<g id="lend13">
			<path d="M 3 1 L 0 0 L 3 -1 L 3 1 " style="stroke:none"/>
		</g>
		<marker id="mrkr13-18" class="st4" v:arrowType="13" v:arrowSize="2" v:setback="10.56" refX="-10.56" orient="auto"
				markerUnits="strokeWidth" overflow="visible">
			<use xlink:href="#lend13" transform="scale(-3.52,-3.52) "/>
		</marker>
	</defs>
	<g v:mID="0" v:index="1" v:groupContext="foregroundPage">
		<title>Page-1</title>
		<v:pageProperties v:drawingScale="0.0393701" v:pageScale="0.0393701" v:drawingUnits="24" v:shadowOffsetX="8.50394"
				v:shadowOffsetY="-8.50394"/>
		<v:layer v:name="Connector" v:index="0"/>
		<g id="shape184-1" v:mID="184" v:groupContext="shape" transform="translate(256.685,-1065.83)">
			<title>Ellipse</title>
			<desc>START</desc>
			<v:userDefs>
				<v:ud v:nameU="visVersion" v:val="VT0(15):26"/>
			</v:userDefs>
			<v:textBlock v:margins="rect(4,4,4,4)" v:tabSpace="42.5197"/>
			<v:textRect cx="26.5748" cy="1101.66" width="46.51" height="31.004"/>
			<path d="M0 1101.66 A26.5748 17.7166 0 0 1 53.15 1101.66 A26.5748 17.7166 0 1 1 0 1101.66 Z" class="st1"/>
			<text x="13.8" y="1104.66" class="st2" v:langID="1033"><v:paragraph v:horizAlign="1"/><v:tabList/>START</text>		</g>
		<g id="shape185-4" v:mID="185" v:groupContext="shape" transform="translate(235.679,-988.483)">
			<title>Parallelogram</title>
			<desc>Input V[n], I[n]</desc>
			<v:userDefs>
				<v:ud v:nameU="visVersion" v:prompt="" v:val="VT0(15):26"/>
			</v:userDefs>
			<v:textBlock v:margins="rect(4,4,4,4)" v:tabSpace="42.5197"/>
			<v:textRect cx="52.4156" cy="1091.67" width="104.84" height="55.4274"/>
			<path d="M0 1119.38 L94.35 1119.38 L104.83 1063.95 L10.48 1063.95 L0 1119.38 Z" class="st1"/>
			<text x="22.61" y="1094.67" class="st2" v:langID="1033"><v:paragraph v:horizAlign="1"/><v:tabList/>Input V[n], I[n]</text>		</g>
		<g id="shape186-7" v:mID="186" v:groupContext="shape" transform="translate(237.4,-895.634)">
			<title>Rectangle</title>
			<desc>P[n] = V[n] x I[n]</desc>
			<v:userDefs>
				<v:ud v:nameU="visVersion" v:val="VT0(15):26"/>
			</v:userDefs>
			<v:textBlock v:margins="rect(4,4,4,4)" v:tabSpace="42.5197"/>
			<v:textRect cx="45.4961" cy="1085.26" width="91" height="68.2441"/>
			<rect x="0" y="1051.14" width="90.9921" height="68.2441" class="st1"/>
			<text x="12.56" y="1088.26" class="st2" v:langID="1033"><v:paragraph v:horizAlign="1"/><v:tabList/>P[n] = V[n] x I[n]</text>		</g>
		<g id="shape187-10" v:mID="187" v:groupContext="shape" transform="translate(218.712,-764.253)">
			<title>Diamond</title>
			<desc>P[n] - P[n-1] &#62; deadband</desc>
			<v:userDefs>
				<v:ud v:nameU="visVersion" v:prompt="" v:val="VT0(15):26"/>
			</v:userDefs>
			<v:textBlock v:margins="rect(4,4,4,4)" v:tabSpace="42.5197"/>
			<v:textRect cx="64.1845" cy="1071.24" width="128.37" height="96.2767"/>
			<path d="M64.18 1119.38 L128.37 1071.24 L64.18 1023.1 L0 1071.24 L64.18 1119.38 Z" class="st1"/>
			<text x="14.61" y="1074.24" class="st2" v:langID="1033"><v:paragraph v:horizAlign="1"/><v:tabList/>P[n] - P[n-1] &#62; deadband</text>		</g>
		<g id="shape189-13" v:mID="189" v:groupContext="shape" v:layerMember="0" transform="translate(276.275,-1065.83)">
			<title>Dynamic connector</title>
			<path d="M6.98 1119.38 L7.09 1130.64" class="st3"/>
		</g>
		<g id="shape190-19" v:mID="190" v:groupContext="shape" v:layerMember="0" transform="translate(275.788,-988.483)">
			<title>Dynamic connector.190</title>
			<path d="M7.07 1119.38 L7.07 1130.01 L7.11 1130.01 L7.11 1133.43" class="st3"/>
		</g>
		<g id="shape191-24" v:mID="191" v:groupContext="shape" v:layerMember="0" transform="translate(275.81,-895.634)">
			<title>Dynamic connector.191</title>
			<path d="M7.09 1119.38 L7.09 1143.93" class="st3"/>
		</g>
		<g id="shape192-29" v:mID="192" v:groupContext="shape" transform="translate(372.451,-665.969)">
			<title>Diamond.192</title>
			<desc>V[n] - V[n-1] &#62; 0</desc>
			<v:userDefs>
				<v:ud v:nameU="visVersion" v:prompt="" v:val="VT0(15):26"/>
			</v:userDefs>
			<v:textBlock v:margins="rect(4,4,4,4)" v:tabSpace="42.5197"/>
			<v:textRect cx="64.1845" cy="1071.24" width="128.37" height="96.2767"/>
			<path d="M64.18 1119.38 L128.37 1071.24 L64.18 1023.1 L0 1071.24 L64.18 1119.38 Z" class="st1"/>
			<text x="31.98" y="1074.24" class="st2" v:langID="1033"><v:paragraph v:horizAlign="1"/><v:tabList/>V[n] - V[n-1] &#62; 0</text>		</g>
		<g id="shape193-32" v:mID="193" v:groupContext="shape" v:layerMember="0" transform="translate(347.081,-812.392)">
			<title>Dynamic connector.193</title>
			<desc>Yes</desc>
			<v:textBlock v:margins="rect(4,4,4,4)" v:tabSpace="42.5197"/>
			<v:textRect cx="69.8502" cy="1119.38" width="50" height="20.0036"/>
			<path d="M0 1119.38 L89.55 1119.38 L89.55 1158.97" class="st3"/>
			<rect v:rectContext="textBkgnd" x="62.9703" y="1113.38" width="13.7598" height="12.0001" class="st5"/>
			<text x="62.97" y="1122.38" class="st2" v:langID="1033"><v:paragraph v:horizAlign="1"/><v:tabList/>Yes</text>		</g>
		<g id="shape194-39" v:mID="194" v:groupContext="shape" transform="translate(465.994,-468.452)">
			<title>Rectangle.194</title>
			<desc>d_ref = d_ref + delta_d</desc>
			<v:userDefs>
				<v:ud v:nameU="visVersion" v:val="VT0(15):26"/>
			</v:userDefs>
			<v:textBlock v:margins="rect(4,4,4,4)" v:tabSpace="42.5197"/>
			<v:textRect cx="52.4409" cy="1102.37" width="104.89" height="34.0157"/>
			<rect x="0" y="1085.37" width="104.882" height="34.0157" class="st1"/>
			<text x="5.74" y="1105.37" class="st2" v:langID="1033"><v:paragraph v:horizAlign="1"/><v:tabList/>d_ref = d_ref + delta_d</text>		</g>
		<g id="shape195-42" v:mID="195" v:groupContext="shape" transform="translate(301.303,-468.452)">
			<title>Rectangle.195</title>
			<desc>d_ref = d_ref - delta_d</desc>
			<v:userDefs>
				<v:ud v:nameU="visVersion" v:val="VT0(15):26"/>
			</v:userDefs>
			<v:textBlock v:margins="rect(4,4,4,4)" v:tabSpace="42.5197"/>
			<v:textRect cx="52.4409" cy="1102.37" width="104.89" height="34.0157"/>
			<rect x="0" y="1085.37" width="104.882" height="34.0157" class="st1"/>
			<text x="6.7" y="1105.37" class="st2" v:langID="1033"><v:paragraph v:horizAlign="1"/><v:tabList/>d_ref = d_ref - delta_d</text>		</g>
		<g id="shape196-45" v:mID="196" v:groupContext="shape" transform="translate(79.6723,-668.346)">
			<title>Diamond.196</title>
			<desc>P[n] - P[n-1] &#60; -deadband</desc>
			<v:userDefs>
				<v:ud v:nameU="visVersion" v:prompt="" v:val="VT0(15):26"/>
			</v:userDefs>
			<v:textBlock v:margins="rect(4,4,4,4)" v:tabSpace="42.5197"/>
			<v:textRect cx="64.1845" cy="1071.24" width="128.37" height="96.2767"/>
			<path d="M64.18 1119.38 L128.37 1071.24 L64.18 1023.1 L0 1071.24 L64.18 1119.38 Z" class="st1"/>
			<text x="13.08" y="1074.24" class="st2" v:langID="1033"><v:paragraph v:horizAlign="1"/><v:tabList/>P[n] - P[n-1] &#60; -deadband</text>		</g>
		<g id="shape197-48" v:mID="197" v:groupContext="shape" transform="translate(79.6723,-528.73)">
			<title>Diamond.197</title>
			<desc>V[n] - V[n-1] &#62; 0</desc>
			<v:userDefs>
				<v:ud v:nameU="visVersion" v:prompt="" v:val="VT0(15):26"/>
			</v:userDefs>
			<v:textBlock v:margins="rect(4,4,4,4)" v:tabSpace="42.5197"/>
			<v:textRect cx="64.1845" cy="1071.24" width="128.37" height="96.2767"/>
			<path d="M64.18 1119.38 L128.37 1071.24 L64.18 1023.1 L0 1071.24 L64.18 1119.38 Z" class="st1"/>
			<text x="31.98" y="1074.24" class="st2" v:langID="1033"><v:paragraph v:horizAlign="1"/><v:tabList/>V[n] - V[n-1] &#62; 0</text>		</g>
		<g id="shape198-51" v:mID="198" v:groupContext="shape" transform="translate(168.356,-469.152)">
			<title>Rectangle.198</title>
			<desc>d_ref = d_ref + delta_d</desc>
			<v:userDefs>
				<v:ud v:nameU="visVersion" v:val="VT0(15):26"/>
			</v:userDefs>
			<v:textBlock v:margins="rect(4,4,4,4)" v:tabSpace="42.5197"/>
			<v:textRect cx="52.4409" cy="1102.37" width="104.89" height="34.0157"/>
			<rect x="0" y="1085.37" width="104.882" height="34.0157" class="st1"/>
			<text x="5.74" y="1105.37" class="st2" v:langID="1033"><v:paragraph v:horizAlign="1"/><v:tabList/>d_ref = d_ref + delta_d</text>		</g>
		<g id="shape199-54" v:mID="199" v:groupContext="shape" transform="translate(18.12,-469.152)">
			<title>Rectangle.199</title>
			<desc>d_ref = d_ref - delta_d</desc>
			<v:userDefs>
				<v:ud v:nameU="visVersion" v:val="VT0(15):26"/>
			</v:userDefs>
			<v:textBlock v:margins="rect(4,4,4,4)" v:tabSpace="42.5197"/>
			<v:textRect cx="52.4409" cy="1102.37" width="104.89" height="34.0157"/>
			<rect x="0" y="1085.37" width="104.882" height="34.0157" class="st1"/>
			<text x="6.7" y="1105.37" class="st2" v:langID="1033"><v:paragraph v:horizAlign="1"/><v:tabList/>d_ref = d_ref - delta_d</text>		</g>
		<g id="shape200-57" v:mID="200" v:groupContext="shape" v:layerMember="0" transform="translate(218.712,-812.392)">
			<title>Dynamic connector.200</title>
			<desc>No</desc>
			<v:textBlock v:margins="rect(4,4,4,4)" v:tabSpace="42.5197"/>
			<v:textRect cx="-61.3117" cy="1119.38" width="50" height="20.0036"/>
			<path d="M0 1119.38 L-74.85 1119.38 L-74.85 1156.59" class="st3"/>
			<rect v:rectContext="textBkgnd" x="-67.176" y="1113.38" width="11.7285" height="12.0001" class="st5"/>
			<text x="-67.18" y="1122.38" class="st2" v:langID="1033"><v:paragraph v:horizAlign="1"/><v:tabList/>No</text>		</g>
		<g id="shape201-64" v:mID="201" v:groupContext="shape" v:layerMember="0" transform="translate(136.77,-668.346)">
			<title>Dynamic connector.201</title>
			<desc>Yes</desc>
			<v:textBlock v:margins="rect(4,4,4,4)" v:tabSpace="42.5197"/>
			<v:textRect cx="7.08661" cy="1141.05" width="50" height="20.0036"/>
			<path d="M7.09 1119.38 L7.09 1152.16" class="st3"/>
			<rect v:rectContext="textBkgnd" x="0.20664" y="1135.05" width="13.7598" height="12.0001" class="st5"/>
			<text x="0.21" y="1144.05" class="st2" v:langID="1033"><v:paragraph v:horizAlign="1"/><v:tabList/>Yes</text>		</g>
		<g id="shape202-71" v:mID="202" v:groupContext="shape" v:layerMember="0" transform="translate(82.2032,-576.868)">
			<title>Dynamic connector.202</title>
			<desc>Yes</desc>
			<v:textBlock v:margins="rect(4,4,4,4)" v:tabSpace="42.5197"/>
			<v:textRect cx="-11.6423" cy="1151.68" width="50" height="20.0036"/>
			<path d="M-2.53 1119.38 L-11.64 1119.38 L-11.64 1182.52" class="st3"/>
			<rect v:rectContext="textBkgnd" x="-18.5223" y="1145.68" width="13.7598" height="12.0001" class="st5"/>
			<text x="-18.52" y="1154.68" class="st2" v:langID="1033"><v:paragraph v:horizAlign="1"/><v:tabList/>Yes</text>		</g>
		<g id="shape203-78" v:mID="203" v:groupContext="shape" v:layerMember="0" transform="translate(207.333,-576.868)">
			<title>Dynamic connector.203</title>
			<desc>No</desc>
			<v:textBlock v:margins="rect(4,4,4,4)" v:tabSpace="42.5197"/>
			<v:textRect cx="13.4646" cy="1149.85" width="50" height="20.0036"/>
			<path d="M0.71 1119.38 L13.46 1119.38 L13.46 1182.52" class="st3"/>
			<rect v:rectContext="textBkgnd" x="7.60027" y="1143.85" width="11.7285" height="12.0001" class="st5"/>
			<text x="7.6" y="1152.85" class="st2" v:langID="1033"><v:paragraph v:horizAlign="1"/><v:tabList/>No</text>		</g>
		<g id="shape204-85" v:mID="204" v:groupContext="shape" v:layerMember="0" transform="translate(372.451,-714.107)">
			<title>Dynamic connector.204</title>
			<desc>No</desc>
			<v:textBlock v:margins="rect(4,4,4,4)" v:tabSpace="42.5197"/>
			<v:textRect cx="-18.7063" cy="1215.85" width="50" height="20.0036"/>
			<path d="M0 1119.38 L-18.71 1119.38 L-18.71 1320.46" class="st3"/>
			<rect v:rectContext="textBkgnd" x="-24.5706" y="1209.85" width="11.7285" height="12.0001" class="st5"/>
			<text x="-24.57" y="1218.85" class="st2" v:langID="1033"><v:paragraph v:horizAlign="1"/><v:tabList/>No</text>		</g>
		<g id="shape205-92" v:mID="205" v:groupContext="shape" v:layerMember="0" transform="translate(500.82,-714.107)">
			<title>Dynamic connector.205</title>
			<desc>Yes</desc>
			<v:textBlock v:margins="rect(4,4,4,4)" v:tabSpace="42.5197"/>
			<v:textRect cx="17.6153" cy="1216.39" width="50" height="20.0036"/>
			<path d="M0 1119.38 L17.62 1119.38 L17.62 1320.46" class="st3"/>
			<rect v:rectContext="textBkgnd" x="10.7353" y="1210.39" width="13.7598" height="12.0001" class="st5"/>
			<text x="10.74" y="1219.39" class="st2" v:langID="1033"><v:paragraph v:horizAlign="1"/><v:tabList/>Yes</text>		</g>
		<g id="shape207-99" v:mID="207" v:groupContext="shape" transform="translate(260.193,-18.12)">
			<title>Ellipse.207</title>
			<desc>RETURN</desc>
			<v:userDefs>
				<v:ud v:nameU="visVersion" v:val="VT0(15):26"/>
			</v:userDefs>
			<v:textBlock v:margins="rect(4,4,4,4)" v:tabSpace="42.5197"/>
			<v:textRect cx="26.5748" cy="1101.66" width="46.51" height="31.004"/>
			<path d="M0 1101.66 A26.5748 17.7166 0 0 1 53.15 1101.66 A26.5748 17.7166 0 1 1 0 1101.66 Z" class="st1"/>
			<text x="9.83" y="1104.66" class="st2" v:langID="1033"><v:paragraph v:horizAlign="1"/><v:tabList/>RETURN</text>		</g>
		<g id="shape210-102" v:mID="210" v:groupContext="shape" v:layerMember="0" transform="translate(353.744,-468.452)">
			<title>Dynamic connector.210</title>
			<path d="M0 1119.38 L-0 1135.2 L-67.28 1135.2 L-67.28 1159.14" class="st3"/>
		</g>
		<g id="shape211-107" v:mID="211" v:groupContext="shape" v:layerMember="0" transform="translate(518.435,-468.452)">
			<title>Dynamic connector.211</title>
			<path d="M0 1119.38 L-0 1135.2 L-164.69 1135.2" class="st6"/>
		</g>
		<g id="shape212-110" v:mID="212" v:groupContext="shape" v:layerMember="0" transform="translate(70.5609,-469.152)">
			<title>Dynamic connector.212</title>
			<path d="M0 1119.38 L0 1135.97 L215.91 1135.97 L215.91 1170.4" class="st6"/>
		</g>
		<g id="shape213-113" v:mID="213" v:groupContext="shape" transform="translate(234.497,-340.171)">
			<title>Diamond.213</title>
			<desc>d_ref &#62; d_max</desc>
			<v:userDefs>
				<v:ud v:nameU="visVersion" v:prompt="" v:val="VT0(15):26"/>
			</v:userDefs>
			<v:textBlock v:margins="rect(4,4,4,4)" v:tabSpace="42.5197"/>
			<v:textRect cx="51.9714" cy="1080.4" width="103.95" height="77.957"/>
			<path d="M51.97 1119.38 L103.94 1080.4 L51.97 1041.42 L0 1080.4 L51.97 1119.38 Z" class="st1"/>
			<text x="22.67" y="1083.4" class="st2" v:langID="1033"><v:paragraph v:horizAlign="1"/><v:tabList/>d_ref &#62; d_max</text>		</g>
		<g id="shape214-116" v:mID="214" v:groupContext="shape" transform="translate(101.738,-270.55)">
			<title>Diamond.214</title>
			<desc>d_ref &#60; d_min</desc>
			<v:userDefs>
				<v:ud v:nameU="visVersion" v:prompt="" v:val="VT0(15):26"/>
			</v:userDefs>
			<v:textBlock v:margins="rect(4,4,4,4)" v:tabSpace="42.5197"/>
			<v:textRect cx="51.9714" cy="1080.4" width="103.95" height="77.957"/>
			<path d="M51.97 1119.38 L103.94 1080.4 L51.97 1041.42 L0 1080.4 L51.97 1119.38 Z" class="st1"/>
			<text x="23.46" y="1083.4" class="st2" v:langID="1033"><v:paragraph v:horizAlign="1"/><v:tabList/>d_ref &#60; d_min</text>		</g>
		<g id="shape215-119" v:mID="215" v:groupContext="shape" v:layerMember="0" transform="translate(234.497,-379.15)">
			<title>Dynamic connector.215</title>
			<desc>No</desc>
			<v:textBlock v:margins="rect(4,4,4,4)" v:tabSpace="42.5197"/>
			<v:textRect cx="-55.7152" cy="1119.38" width="50" height="20.0036"/>
			<path d="M0 1119.38 L-80.79 1119.38 L-80.79 1139.46" class="st3"/>
			<rect v:rectContext="textBkgnd" x="-61.5795" y="1113.38" width="11.7285" height="12.0001" class="st5"/>
			<text x="-61.58" y="1122.38" class="st2" v:langID="1033"><v:paragraph v:horizAlign="1"/><v:tabList/>No</text>		</g>
		<g id="shape217-126" v:mID="217" v:groupContext="shape" transform="translate(372.237,-248.444)">
			<title>Rectangle.217</title>
			<desc>d_ref = d_max</desc>
			<v:userDefs>
				<v:ud v:nameU="visVersion" v:val="VT0(15):26"/>
			</v:userDefs>
			<v:textBlock v:margins="rect(4,4,4,4)" v:tabSpace="42.5197"/>
			<v:textRect cx="52.4409" cy="1102.37" width="104.89" height="34.0157"/>
			<rect x="0" y="1085.37" width="104.882" height="34.0157" class="st1"/>
			<text x="23.14" y="1105.37" class="st2" v:langID="1033"><v:paragraph v:horizAlign="1"/><v:tabList/>d_ref = d_max</text>		</g>
		<g id="shape219-129" v:mID="219" v:groupContext="shape" v:layerMember="0" transform="translate(338.439,-379.15)">
			<title>Dynamic connector.219</title>
			<desc>Yes</desc>
			<v:textBlock v:margins="rect(4,4,4,4)" v:tabSpace="42.5197"/>
			<v:textRect cx="60.4668" cy="1119.14" width="50" height="20.0036"/>
			<path d="M0 1119.38 L86.24 1119.38 L86.24 1205.51" class="st3"/>
			<rect v:rectContext="textBkgnd" x="53.5868" y="1113.14" width="13.7598" height="12.0001" class="st5"/>
			<text x="53.59" y="1122.14" class="st2" v:langID="1033"><v:paragraph v:horizAlign="1"/><v:tabList/>Yes</text>		</g>
		<g id="shape220-136" v:mID="220" v:groupContext="shape" transform="translate(101.268,-192.601)">
			<title>Rectangle.220</title>
			<desc>d_ref = d_min</desc>
			<v:userDefs>
				<v:ud v:nameU="visVersion" v:val="VT0(15):26"/>
			</v:userDefs>
			<v:textBlock v:margins="rect(4,4,4,4)" v:tabSpace="42.5197"/>
			<v:textRect cx="52.4409" cy="1102.37" width="104.89" height="34.0157"/>
			<rect x="0" y="1085.37" width="104.882" height="34.0157" class="st1"/>
			<text x="23.93" y="1105.37" class="st2" v:langID="1033"><v:paragraph v:horizAlign="1"/><v:tabList/>d_ref = d_min</text>		</g>
		<g id="shape221-139" v:mID="221" v:groupContext="shape" v:layerMember="0" transform="translate(160.796,-270.55)">
			<title>Dynamic connector.221</title>
			<desc>Yes</desc>
			<v:textBlock v:margins="rect(4,4,4,4)" v:tabSpace="42.5197"/>
			<v:textRect cx="-7.08661" cy="1141.35" width="50" height="20.0036"/>
			<path d="M-7.09 1119.38 L-7.09 1152.75" class="st3"/>
			<rect v:rectContext="textBkgnd" x="-13.9666" y="1135.35" width="13.7598" height="12.0001" class="st5"/>
			<text x="-13.97" y="1144.35" class="st2" v:langID="1033"><v:paragraph v:horizAlign="1"/><v:tabList/>Yes</text>		</g>
		<g id="shape222-146" v:mID="222" v:groupContext="shape" v:layerMember="0" transform="translate(286.376,-141.156)">
			<title>Dynamic connector.222</title>
			<path d="M0 1119.38 L0 1093.7 L-132.67 1093.7 L-132.67 1067.94" class="st6"/>
		</g>
		<g id="shape223-149" v:mID="223" v:groupContext="shape" v:layerMember="0" transform="translate(205.681,-309.528)">
			<title>Dynamic connector.223</title>
			<desc>No</desc>
			<v:textBlock v:margins="rect(4,4,4,4)" v:tabSpace="42.5197"/>
			<v:textRect cx="80.6959" cy="1163.22" width="50" height="20.0036"/>
			<path d="M0 1119.38 L80.7 1119.38 L80.7 1277.19" class="st3"/>
			<rect v:rectContext="textBkgnd" x="74.8316" y="1157.22" width="11.7285" height="12.0001" class="st5"/>
			<text x="74.83" y="1166.22" class="st2" v:langID="1033"><v:paragraph v:horizAlign="1"/><v:tabList/>No</text>		</g>
		<g id="shape224-156" v:mID="224" v:groupContext="shape" v:layerMember="0" transform="translate(424.678,-248.444)">
			<title>Dynamic connector.224</title>
			<path d="M0 1119.38 L0 1201 L-138.95 1201" class="st6"/>
		</g>
		<g id="shape227-159" v:mID="227" v:groupContext="shape" v:layerMember="0" transform="translate(220.797,-469.152)">
			<title>Dynamic connector.227</title>
			<path d="M0 1119.38 L0 1135.9 L65.67 1135.9 L65.67 1170.4" class="st6"/>
		</g>
		<g id="shape229-162" v:mID="229" v:groupContext="shape" v:layerMember="0" transform="translate(208.041,-716.485)">
			<title>Dynamic connector.229</title>
			<desc>No</desc>
			<v:textBlock v:margins="rect(4,4,4,4)" v:tabSpace="42.5197"/>
			<v:textRect cx="78.4266" cy="1229.35" width="50" height="20.0036"/>
			<path d="M0 1119.38 L78.43 1119.38 L78.43 1417.74" class="st6"/>
			<rect v:rectContext="textBkgnd" x="72.5624" y="1223.35" width="11.7285" height="12.0001" class="st5"/>
			<text x="72.56" y="1232.35" class="st2" v:langID="1033"><v:paragraph v:horizAlign="1"/><v:tabList/>No</text>		</g>
		<g id="shape231-167" v:mID="231" v:groupContext="shape" transform="translate(239.679,-85.6293)">
			<title>Parallelogram.231</title>
			<desc>Output d_ref</desc>
			<v:userDefs>
				<v:ud v:nameU="visVersion" v:prompt="" v:val="VT0(15):26"/>
			</v:userDefs>
			<v:textBlock v:margins="rect(4,4,4,4)" v:tabSpace="42.5197"/>
			<v:textRect cx="52.4156" cy="1091.67" width="104.84" height="55.4274"/>
			<path d="M0 1119.38 L94.35 1119.38 L104.83 1063.95 L10.48 1063.95 L0 1119.38 Z" class="st1"/>
			<text x="25.87" y="1094.67" class="st2" v:langID="1033"><v:paragraph v:horizAlign="1"/><v:tabList/>Output d_ref</text>		</g>
		<g id="shape232-170" v:mID="232" v:groupContext="shape" v:layerMember="0" transform="translate(293.897,-85.6293)">
			<title>Dynamic connector.232</title>
			<path d="M-7.04 1119.38 L-7.04 1130.01 L-7.13 1130.01 L-7.13 1140.9" class="st3"/>
		</g>
	</g>
</svg>
